<?xml version="1.0" encoding="UTF-8"?>
<svg width="43px" height="23px" viewBox="0 0 43 23" version="1.1" xmlns="http://www.w3.org/2000/svg" xmlns:xlink="http://www.w3.org/1999/xlink">
    <!-- Generator: Sketch 53 (72520) - https://sketchapp.com -->
    <title>logo</title>
    <desc>Created with Sketch.</desc>
    <defs>
        <linearGradient x1="0%" y1="0%" x2="0%" y2="100%" id="linearGradient-1">
            <stop stop-color="#2EA5F2" offset="0%"></stop>
            <stop stop-color="#6ED2FF" offset="100%"></stop>
        </linearGradient>
        <linearGradient x1="0%" y1="0%" x2="0%" y2="100%" id="linearGradient-2">
            <stop stop-color="#2EA5F2" offset="0%"></stop>
            <stop stop-color="#6ED2FF" offset="100%"></stop>
        </linearGradient>
    </defs>
    <g id="Process" stroke="none" stroke-width="1" fill="none" fill-rule="evenodd">
        <g id="Landing" transform="translate(-200.000000, -76.000000)" fill-rule="nonzero">
            <g id="logo" transform="translate(200.000000, 76.000000)">
                <g id="logo-full">
                    <g id="Group-6">
                        <g id="Group-7">
                            <path d="M9.98317307,16.0661507 L24.5625242,1.2360928 C25.7198761,0.058839117 27.6338429,0.0221332451 28.8374889,1.15410794 C30.0411348,2.28608263 30.0786635,4.1580821 28.9213117,5.33533578 L13.6196472,20.9001279 C13.550629,20.9694207 13.550629,20.9694207 13.4797828,21.0369255 C11.4714136,22.9257061 8.27782319,22.8644598 6.34669898,20.9001279 L1.17998128,15.6445633 C0.0226294388,14.4673096 0.0601582005,12.5953101 1.26380412,11.4633354 C2.46745003,10.3313607 4.38141688,10.3680666 5.53876872,11.5453203 L9.98317307,16.0661507 Z" id="Path-2" fill="url(#linearGradient-1)"></path>
                            <path d="M27.0387687,21.6457765 C25.8814169,22.8230302 23.96745,22.8597361 22.7638041,21.7277614 C21.5601582,20.5957867 21.5226294,18.7237872 22.6799813,17.5465336 L37.3450977,2.62923565 C38.5024495,1.45198197 40.4164163,1.4152761 41.6200623,2.54725079 C42.8237082,3.67922549 42.8612369,5.55122495 41.7038851,6.72847863 L27.0387687,21.6457765 Z" id="Path-2-Copy-8" fill="url(#linearGradient-2)" opacity="0.400000006"></path>
                        </g>
                    </g>
                </g>
            </g>
        </g>
    </g>
</svg>