<?xml version="1.0" encoding="UTF-8"?>
<svg width="148px" height="44px" viewBox="0 0 148 44" version="1.1" xmlns="http://www.w3.org/2000/svg" xmlns:xlink="http://www.w3.org/1999/xlink">
    <!-- Generator: Sketch 53 (72520) - https://sketchapp.com -->
    <title>app-store</title>
    <desc>Created with Sketch.</desc>
    <g id="Process" stroke="none" stroke-width="1" fill="none" fill-rule="evenodd">
        <g id="app-store" fill-rule="nonzero">
            <path d="M147.931615,38.7948 C147.931615,41.1224 146.039867,43.0078 143.700015,43.0078 L5.21941481,43.0078 C2.88066667,43.0078 0.982296296,41.1224 0.982296296,38.7948 L0.982296296,5.1975 C0.982296296,2.871 2.88066667,0.979 5.21941481,0.979 L143.698911,0.979 C146.039867,0.979 147.930511,2.871 147.930511,5.1975 L147.931615,38.7948 L147.931615,38.7948 Z" id="Path" fill="#000000"></path>
            <g id="Group" transform="translate(13.244444, 6.600000)" fill="#FFFFFF">
                <path d="M20.0079407,15.1624 C19.9759333,11.6171 22.9206148,9.8923 23.0552667,9.812 C21.3875704,7.3887 18.8026963,7.0576 17.8943481,7.0312 C15.723363,6.8035 13.6174963,8.3259 12.5115852,8.3259 C11.3836,8.3259 9.68058519,7.0532 7.84512593,7.0906 C5.4832,7.1269 3.27358519,8.4898 2.06171852,10.6062 C-0.439274074,14.9215 1.42598519,21.263 3.82212593,24.7511 C5.02074815,26.4594 6.42134815,28.3668 8.2546,28.2997 C10.0481185,28.226 10.7180667,27.1601 12.8824296,27.1601 C15.0269259,27.1601 15.656037,28.2997 17.5257111,28.2568 C19.4505704,28.226 20.662437,26.5408 21.8191185,24.8171 C23.2042667,22.8591 23.7605333,20.9308 23.7826074,20.8318 C23.7373556,20.8164 20.044363,19.4117 20.0079407,15.1624 Z" id="Path"></path>
                <path d="M16.4760889,4.7366 C17.4407259,3.5343 18.1007407,1.8986 17.9175259,0.2387 C16.5213407,0.3003 14.7752815,1.2012 13.7698074,2.3771 C12.8802222,3.4133 12.0855556,5.1117 12.2908444,6.7089 C13.8592074,6.8255 15.4695111,5.9202 16.4760889,4.7366 Z" id="Path"></path>
            </g>
            <g id="Group" transform="translate(46.355556, 19.800000)" fill="#FFFFFF">
                <path d="M12.8526296,14.8544 L10.3461185,14.8544 L8.97311111,10.5545 L4.2006963,10.5545 L2.89280741,14.8544 L0.452518519,14.8544 L5.18078519,0.2156 L8.10118519,0.2156 L12.8526296,14.8544 Z M8.55922222,8.7505 L7.31755556,4.928 C7.18621481,4.5375 6.94008889,3.6179 6.57697037,2.1703 L6.53282222,2.1703 C6.38823704,2.7929 6.15535556,3.7125 5.83528148,4.928 L4.61568889,8.7505 L8.55922222,8.7505 L8.55922222,8.7505 Z" id="Shape"></path>
                <path d="M25.0121333,9.4468 C25.0121333,11.242 24.5254,12.661 23.5519333,13.7027 C22.6800074,14.63 21.5972741,15.0931 20.304837,15.0931 C18.9097556,15.0931 17.9075926,14.5937 17.2972444,13.5949 L17.2530963,13.5949 L17.2530963,19.1554 L14.9,19.1554 L14.9,7.7737 C14.9,6.6451 14.8702,5.4868 14.8128074,4.2988 L16.8822519,4.2988 L17.0135926,5.9719 L17.0577407,5.9719 C17.8424741,4.7113 19.0333704,4.0821 20.6315333,4.0821 C21.8809259,4.0821 22.9239259,4.5738 23.7583259,5.5583 C24.5949333,6.5439 25.0121333,7.8397 25.0121333,9.4468 Z M22.6148889,9.5326 C22.6148889,8.5052 22.3831111,7.6582 21.9173481,6.9916 C21.4085407,6.2964 20.7253481,5.9488 19.8688741,5.9488 C19.2883259,5.9488 18.7607556,6.1424 18.2894741,6.5241 C17.8170889,6.9091 17.5080519,7.4118 17.3634667,8.0344 C17.2906222,8.3248 17.2542,8.5624 17.2542,8.7494 L17.2542,10.5094 C17.2542,11.2772 17.4903926,11.9251 17.9627778,12.4542 C18.435163,12.9833 19.0488222,13.2473 19.8037556,13.2473 C20.6900296,13.2473 21.3798444,12.9063 21.8732,12.2265 C22.3676593,11.5456 22.6148889,10.648 22.6148889,9.5326 Z" id="Shape"></path>
                <path d="M37.1937111,9.4468 C37.1937111,11.242 36.7069778,12.661 35.7324074,13.7027 C34.8615852,14.63 33.7788519,15.0931 32.4864148,15.0931 C31.0913333,15.0931 30.0891704,14.5937 29.4799259,13.5949 L29.4357778,13.5949 L29.4357778,19.1554 L27.0826815,19.1554 L27.0826815,7.7737 C27.0826815,6.6451 27.0528815,5.4868 26.9954889,4.2988 L29.0649333,4.2988 L29.1962741,5.9719 L29.2404222,5.9719 C30.0240519,4.7113 31.2149481,4.0821 32.8142148,4.0821 C34.0625037,4.0821 35.1055037,4.5738 35.9421111,5.5583 C36.7754074,6.5439 37.1937111,7.8397 37.1937111,9.4468 Z M34.7964667,9.5326 C34.7964667,8.5052 34.5635852,7.6582 34.0978222,6.9916 C33.5890148,6.2964 32.9080296,5.9488 32.0504519,5.9488 C31.4688,5.9488 30.9423333,6.1424 30.4699481,6.5241 C29.997563,6.9091 29.6896296,7.4118 29.5450444,8.0344 C29.4733037,8.3248 29.4357778,8.5624 29.4357778,8.7494 L29.4357778,10.5094 C29.4357778,11.2772 29.6719704,11.9251 30.1421481,12.4542 C30.6145333,12.9822 31.2281926,13.2473 31.9853333,13.2473 C32.8716074,13.2473 33.5614222,12.9063 34.0547778,12.2265 C34.549237,11.5456 34.7964667,10.648 34.7964667,9.5326 Z" id="Shape"></path>
                <path d="M50.8134148,10.7492 C50.8134148,11.9944 50.3796593,13.0075 49.508837,13.7896 C48.5519259,14.6443 47.2197556,15.0711 45.5079111,15.0711 C43.9274074,15.0711 42.6603556,14.7675 41.701237,14.1592 L42.2464667,12.2045 C43.2795333,12.8271 44.413037,13.1395 45.6480815,13.1395 C46.5343556,13.1395 47.2241704,12.9393 47.7197333,12.5411 C48.2130889,12.1429 48.4592148,11.6083 48.4592148,10.9417 C48.4592148,10.3477 48.2561333,9.8472 47.8488667,9.4413 C47.4438074,9.0354 46.767237,8.6581 45.8224667,8.3094 C43.250837,7.3535 41.9661259,5.9532 41.9661259,4.1118 C41.9661259,2.9084 42.416437,1.9217 43.318163,1.1539 C44.2165778,0.385 45.4152,0.0011 46.9140296,0.0011 C48.2506148,0.0011 49.3609407,0.2332 50.2472148,0.6963 L49.6589407,2.6081 C48.831163,2.1593 47.8952222,1.9349 46.8478074,1.9349 C46.0200296,1.9349 45.3732593,2.1384 44.9097037,2.5432 C44.5178889,2.9051 44.3214296,3.3462 44.3214296,3.8687 C44.3214296,4.4473 44.5454815,4.9258 44.9957926,5.302 C45.3876074,5.6496 46.0994963,6.0258 47.132563,6.4317 C48.3963037,6.9388 49.3245185,7.5317 49.9216222,8.2115 C50.5165185,8.8891 50.8134148,9.7372 50.8134148,10.7492 Z" id="Path"></path>
                <path d="M58.5934222,6.0588 L55.9997185,6.0588 L55.9997185,11.1837 C55.9997185,12.4872 56.4566519,13.1384 57.3727259,13.1384 C57.793237,13.1384 58.1420074,13.1021 58.4179333,13.0295 L58.4830519,14.8104 C58.0194963,14.9831 57.4091481,15.07 56.6531111,15.07 C55.7237926,15.07 54.9975556,14.7873 54.4732963,14.223 C53.9512444,13.6576 53.688563,12.7094 53.688563,11.3773 L53.688563,6.0566 L52.1433778,6.0566 L52.1433778,4.2966 L53.688563,4.2966 L53.688563,2.3639 L55.9997185,1.6687 L55.9997185,4.2966 L58.5934222,4.2966 L58.5934222,6.0588 Z" id="Path"></path>
                <path d="M70.2959926,9.4897 C70.2959926,11.1122 69.8302296,12.4443 68.9009111,13.486 C67.9263407,14.5585 66.6328,15.0931 65.0202889,15.0931 C63.4662741,15.0931 62.2290222,14.5794 61.3063259,13.552 C60.3836296,12.5246 59.9222815,11.2277 59.9222815,9.6646 C59.9222815,8.0289 60.3968741,6.6891 61.3493704,5.6474 C62.2996593,4.6046 63.582163,4.0832 65.1946741,4.0832 C66.7486889,4.0832 67.9991852,4.5969 68.9428519,5.6254 C69.8456815,6.6231 70.2959926,7.9112 70.2959926,9.4897 Z M67.8546,9.5656 C67.8546,8.5921 67.646,7.7572 67.2232815,7.0609 C66.7299259,6.2183 66.0246593,5.7981 65.1107926,5.7981 C64.1649185,5.7981 63.4464074,6.2194 62.9530519,7.0609 C62.5303333,7.7583 62.3217333,8.6064 62.3217333,9.6096 C62.3217333,10.5831 62.5303333,11.418 62.9530519,12.1132 C63.4618593,12.9558 64.1726444,13.376 65.0898222,13.376 C65.988237,13.376 66.6935037,12.947 67.2023111,12.0912 C67.6360667,11.3817 67.8546,10.538 67.8546,9.5656 Z" id="Shape"></path>
                <path d="M77.9446593,6.3613 C77.7117778,6.3184 77.4634444,6.2964 77.2029704,6.2964 C76.3751926,6.2964 75.7350444,6.6077 75.2847333,7.2314 C74.8929185,7.7814 74.6964593,8.4766 74.6964593,9.3159 L74.6964593,14.8544 L72.3444667,14.8544 L72.3665407,7.623 C72.3665407,6.4064 72.3367407,5.2987 72.2782444,4.2999 L74.3278222,4.2999 L74.4139111,6.3195 L74.4790296,6.3195 C74.727363,5.6254 75.1191778,5.0666 75.6555778,4.6475 C76.179837,4.2702 76.746037,4.0821 77.3563852,4.0821 C77.5738148,4.0821 77.7702741,4.0975 77.9446593,4.125 L77.9446593,6.3613 Z" id="Path"></path>
                <path d="M88.4684741,9.0772 C88.4684741,9.4974 88.4408815,9.8516 88.3823852,10.1409 L81.3230963,10.1409 C81.3506889,11.1837 81.6917333,11.9812 82.3473333,12.5312 C82.9422296,13.0229 83.7115111,13.2693 84.6562815,13.2693 C85.7014889,13.2693 86.6550889,13.1032 87.5126667,12.7699 L87.8813037,14.3979 C86.8791407,14.8335 85.6959704,15.0502 84.3306889,15.0502 C82.6883778,15.0502 81.3992519,14.5684 80.4611037,13.6059 C79.525163,12.6434 79.0560889,11.3509 79.0560889,9.7295 C79.0560889,8.1378 79.4920519,6.8123 80.3650815,5.7552 C81.2789481,4.6266 82.5139926,4.0623 84.0680074,4.0623 C85.5944296,4.0623 86.7500074,4.6266 87.5347407,5.7552 C88.1561259,6.6517 88.4684741,7.7605 88.4684741,9.0772 Z M86.2246444,8.4689 C86.2400963,7.7737 86.0866815,7.1731 85.7677111,6.666 C85.3604444,6.0137 84.7346444,5.6881 83.8925185,5.6881 C83.123237,5.6881 82.497437,6.006 82.0195333,6.644 C81.6277185,7.1511 81.394837,7.7594 81.3230963,8.4678 L86.2246444,8.4678 L86.2246444,8.4689 Z" id="Shape"></path>
            </g>
            <g id="Group" transform="translate(47.459259, 6.600000)" fill="#FFFFFF">
                <path d="M6.67740741,4.4099 C6.67740741,5.7046 6.2878,6.6792 5.50968889,7.3337 C4.78897037,7.9376 3.76473333,8.2401 2.43808148,8.2401 C1.78027407,8.2401 1.21738519,8.2115 0.746103704,8.1543 L0.746103704,1.0802 C1.36086667,0.9812 2.02308889,0.9306 2.73828889,0.9306 C4.00202963,0.9306 4.95452593,1.2045 5.59688148,1.7523 C6.3164963,2.3716 6.67740741,3.2571 6.67740741,4.4099 Z M5.45781481,4.4418 C5.45781481,3.6025 5.23486667,2.959 4.78897037,2.5102 C4.34307407,2.0625 3.69188889,1.8381 2.83431111,1.8381 C2.47008889,1.8381 2.15994815,1.8623 1.90278519,1.9129 L1.90278519,7.2908 C2.04516296,7.3128 2.30563704,7.3227 2.68420741,7.3227 C3.56937778,7.3227 4.25257037,7.0774 4.73378519,6.5868 C5.215,6.0962 5.45781481,5.3812 5.45781481,4.4418 Z" id="Shape"></path>
                <path d="M13.1440074,5.5407 C13.1440074,6.3382 12.9155407,6.9916 12.4586074,7.5042 C11.9796,8.0311 11.3449704,8.294 10.5525111,8.294 C9.78874815,8.294 9.18060741,8.0421 8.72698519,7.5361 C8.27446667,7.0312 8.04820741,6.3943 8.04820741,5.6265 C8.04820741,4.8235 8.28108889,4.1646 8.74905926,3.6531 C9.21702963,3.1416 9.84614074,2.8853 10.6386,2.8853 C11.402363,2.8853 12.0160222,3.1372 12.4806815,3.6421 C12.922163,4.1327 13.1440074,4.7663 13.1440074,5.5407 Z M11.9442815,5.5781 C11.9442815,5.0996 11.8405333,4.6893 11.6341407,4.3472 C11.3913259,3.9336 11.0458667,3.7268 10.5966593,3.7268 C10.132,3.7268 9.77881481,3.9336 9.536,4.3472 C9.3285037,4.6893 9.22585926,5.1062 9.22585926,5.599 C9.22585926,6.0775 9.32960741,6.4878 9.536,6.8299 C9.78654074,7.2435 10.1353111,7.4503 10.5856222,7.4503 C11.0271037,7.4503 11.3736667,7.2402 11.6231037,6.8189 C11.8372222,6.4702 11.9442815,6.0566 11.9442815,5.5781 Z" id="Shape"></path>
                <path d="M21.8147037,2.9909 L20.1867407,8.1763 L19.1271852,8.1763 L18.4528222,5.9246 C18.2817481,5.3625 18.1426815,4.8037 18.0345185,4.2493 L18.0135481,4.2493 C17.9131111,4.8191 17.7740444,5.3768 17.5952444,5.9246 L16.8789407,8.1763 L15.8072444,8.1763 L14.2764074,2.9909 L15.4650963,2.9909 L16.0533704,5.456 C16.1957481,6.039 16.3127407,6.5945 16.4065556,7.1203 L16.4275259,7.1203 C16.5136148,6.6869 16.6559926,6.1347 16.8568667,5.467 L17.5952444,2.992 L18.5378074,2.992 L19.2452815,5.4142 C19.4163556,6.0049 19.5554222,6.5736 19.6624815,7.1214 L19.6944889,7.1214 C19.7728519,6.5879 19.8909481,6.0192 20.0476741,5.4142 L20.6789926,2.992 L21.8147037,2.992 L21.8147037,2.9909 Z" id="Path"></path>
                <path d="M27.8111259,8.1763 L26.6544444,8.1763 L26.6544444,5.2063 C26.6544444,4.2911 26.3056741,3.8335 25.6059259,3.8335 C25.2626741,3.8335 24.9856444,3.9589 24.7704222,4.2108 C24.5574074,4.4627 24.4492444,4.7597 24.4492444,5.0996 L24.4492444,8.1752 L23.292563,8.1752 L23.292563,4.4726 C23.292563,4.0172 23.2782148,3.5233 23.2506222,2.9887 L24.2671333,2.9887 L24.3212148,3.7994 L24.3532222,3.7994 C24.4878741,3.5475 24.6887481,3.3396 24.9525333,3.1735 C25.2659852,2.9799 25.616963,2.882 26.0010519,2.882 C26.4866815,2.882 26.890637,3.0382 27.2118148,3.3517 C27.6113556,3.7356 27.8111259,4.3087 27.8111259,5.0699 L27.8111259,8.1763 L27.8111259,8.1763 Z" id="Path"></path>
                <polygon id="Path" points="31.0008296 8.1763 29.8452519 8.1763 29.8452519 0.6116 31.0008296 0.6116"></polygon>
                <path d="M37.8106815,5.5407 C37.8106815,6.3382 37.5822148,6.9916 37.1252815,7.5042 C36.6462741,8.0311 36.0105407,8.294 35.2191852,8.294 C34.4543185,8.294 33.8461778,8.0421 33.3936593,7.5361 C32.9411407,7.0312 32.7148815,6.3943 32.7148815,5.6265 C32.7148815,4.8235 32.947763,4.1646 33.4157333,3.6531 C33.8837037,3.1416 34.5128148,2.8853 35.3041704,2.8853 C36.069037,2.8853 36.6815926,3.1372 37.1473556,3.6421 C37.588837,4.1327 37.8106815,4.7663 37.8106815,5.5407 Z M36.6098519,5.5781 C36.6098519,5.0996 36.5061037,4.6893 36.2997111,4.3472 C36.058,3.9336 35.711437,3.7268 35.2633333,3.7268 C34.7975704,3.7268 34.4443852,3.9336 34.2026741,4.3472 C33.9951778,4.6893 33.8925333,5.1062 33.8925333,5.599 C33.8925333,6.0775 33.9962815,6.4878 34.2026741,6.8299 C34.4532148,7.2435 34.8019852,7.4503 35.2522963,7.4503 C35.6937778,7.4503 36.039237,7.2402 36.2886741,6.8189 C36.5038963,6.4702 36.6098519,6.0566 36.6098519,5.5781 Z" id="Shape"></path>
                <path d="M43.4086667,8.1763 L42.3700815,8.1763 L42.2839926,7.579 L42.2519852,7.579 C41.8965926,8.0553 41.3899926,8.294 40.7321852,8.294 C40.241037,8.294 39.8437037,8.1367 39.5446,7.8243 C39.2730889,7.5405 39.1373333,7.1874 39.1373333,6.7683 C39.1373333,6.1347 39.4022222,5.6518 39.9353111,5.3174 C40.4672963,4.983 41.2156074,4.8191 42.1791407,4.8268 L42.1791407,4.73 C42.1791407,4.0469 41.8193333,3.7059 41.0986148,3.7059 C40.5853926,3.7059 40.1328741,3.8346 39.742163,4.0898 L39.5070741,3.333 C39.9904963,3.0349 40.5876,2.8853 41.291763,2.8853 C42.6515259,2.8853 43.3336148,3.6003 43.3336148,5.0303 L43.3336148,6.9399 C43.3336148,7.458 43.359,7.8705 43.4086667,8.1763 Z M42.207837,6.3943 L42.207837,5.5946 C40.9319556,5.5726 40.2940148,5.9213 40.2940148,6.6396 C40.2940148,6.9102 40.3668593,7.1126 40.5158593,7.2479 C40.6648593,7.3832 40.8546963,7.4503 41.0809556,7.4503 C41.3348074,7.4503 41.5721037,7.37 41.7884296,7.2105 C42.0058593,7.0499 42.1394074,6.8464 42.1890741,6.5967 C42.2012148,6.5406 42.207837,6.4724 42.207837,6.3943 Z" id="Shape"></path>
                <path d="M49.9812222,8.1763 L48.9547778,8.1763 L48.9006963,7.3436 L48.8686889,7.3436 C48.5408889,7.9772 47.9824148,8.294 47.1976815,8.294 C46.5707778,8.294 46.0487259,8.0487 45.634837,7.5581 C45.2209481,7.0675 45.0145556,6.4306 45.0145556,5.6485 C45.0145556,4.8092 45.2386074,4.1294 45.6889185,3.6102 C46.1248815,3.1262 46.6590741,2.8842 47.2948074,2.8842 C47.9934519,2.8842 48.4823926,3.1185 48.7605259,3.5882 L48.7826,3.5882 L48.7826,0.6116 L49.9403852,0.6116 L49.9403852,6.7793 C49.9403852,7.2842 49.9536296,7.7495 49.9812222,8.1763 Z M48.7826,5.9895 L48.7826,5.1249 C48.7826,4.9753 48.771563,4.8543 48.7505926,4.7619 C48.6854741,4.4847 48.5453037,4.2515 48.3322889,4.0634 C48.1170667,3.8753 47.8576963,3.7807 47.5585926,3.7807 C47.1270444,3.7807 46.7893111,3.9512 46.5409778,4.2933 C46.2948519,4.6354 46.1701333,5.0721 46.1701333,5.6056 C46.1701333,6.1182 46.2882296,6.534 46.5255259,6.8541 C46.7760667,7.1951 47.1138,7.3656 47.5365185,7.3656 C47.9161926,7.3656 48.2197111,7.2237 48.4503852,6.9388 C48.6733333,6.6759 48.7826,6.3591 48.7826,5.9895 Z" id="Shape"></path>
                <path d="M59.8737185,5.5407 C59.8737185,6.3382 59.6452519,6.9916 59.1883185,7.5042 C58.7093111,8.0311 58.0757852,8.294 57.2822222,8.294 C56.519563,8.294 55.9114222,8.0421 55.4566963,7.5361 C55.0041778,7.0312 54.7779185,6.3943 54.7779185,5.6265 C54.7779185,4.8235 55.0108,4.1646 55.4787704,3.6531 C55.9467407,3.1416 56.5758519,2.8853 57.3694148,2.8853 C58.1320741,2.8853 58.746837,3.1372 59.2103926,3.6421 C59.6518741,4.1327 59.8737185,4.7663 59.8737185,5.5407 Z M58.6750963,5.5781 C58.6750963,5.0996 58.5713481,4.6893 58.3649556,4.3472 C58.121037,3.9336 57.7766815,3.7268 57.3263704,3.7268 C56.8628148,3.7268 56.5096296,3.9336 56.2657111,4.3472 C56.0582148,4.6893 55.9555704,5.1062 55.9555704,5.599 C55.9555704,6.0775 56.0593185,6.4878 56.2657111,6.8299 C56.5162519,7.2435 56.8650222,7.4503 57.3153333,7.4503 C57.7568148,7.4503 58.1044815,7.2402 58.3539185,6.8189 C58.5669333,6.4702 58.6750963,6.0566 58.6750963,5.5781 Z" id="Shape"></path>
                <path d="M66.0930889,8.1763 L64.9375111,8.1763 L64.9375111,5.2063 C64.9375111,4.2911 64.5887407,3.8335 63.8878889,3.8335 C63.544637,3.8335 63.2676074,3.9589 63.0534889,4.2108 C62.8393704,4.4627 62.7323111,4.7597 62.7323111,5.0996 L62.7323111,8.1752 L61.5745259,8.1752 L61.5745259,4.4726 C61.5745259,4.0172 61.5612815,3.5233 61.5336889,2.9887 L62.5490963,2.9887 L62.6031778,3.7994 L62.6351852,3.7994 C62.7709407,3.5475 62.9718148,3.3396 63.2344963,3.1735 C63.5490519,2.9799 63.8989259,2.882 64.2841185,2.882 C64.7686444,2.882 65.1726,3.0382 65.4937778,3.3517 C65.8944222,3.7356 66.0930889,4.3087 66.0930889,5.0699 L66.0930889,8.1763 L66.0930889,8.1763 Z" id="Path"></path>
                <path d="M73.8775111,3.8544 L72.603837,3.8544 L72.603837,6.3734 C72.603837,7.0136 72.8300963,7.3337 73.2782,7.3337 C73.4856963,7.3337 73.6578741,7.3161 73.7936296,7.2798 L73.8234296,8.1543 C73.594963,8.2401 73.2947556,8.283 72.9250148,8.283 C72.4680815,8.283 72.1126889,8.1444 71.8555259,7.8672 C71.5972593,7.59 71.4692296,7.1236 71.4692296,6.4691 L71.4692296,3.8544 L70.7087778,3.8544 L70.7087778,2.9909 L71.4692296,2.9909 L71.4692296,2.0405 L72.6027333,1.6995 L72.6027333,2.9898 L73.8764074,2.9898 L73.8764074,3.8544 L73.8775111,3.8544 Z" id="Path"></path>
                <path d="M80.0008593,8.1763 L78.8430741,8.1763 L78.8430741,5.2283 C78.8430741,4.2988 78.4943037,3.8335 77.7956593,3.8335 C77.2592593,3.8335 76.8928296,4.103 76.6919556,4.642 C76.6577407,4.7553 76.6378741,4.8939 76.6378741,5.0567 L76.6378741,8.1752 L75.4822963,8.1752 L75.4822963,0.6116 L76.6378741,0.6116 L76.6378741,3.7367 L76.6599481,3.7367 C77.0241704,3.168 77.5462222,2.8842 78.2227926,2.8842 C78.7018,2.8842 79.0980296,3.0404 79.4125852,3.3539 C79.8044,3.7444 80.0008593,4.3252 80.0008593,5.093 L80.0008593,8.1763 L80.0008593,8.1763 Z" id="Path"></path>
                <path d="M86.3173556,5.3383 C86.3173556,5.5451 86.3019037,5.7189 86.2743111,5.8608 L82.8053704,5.8608 C82.8208222,6.3734 82.9863778,6.7639 83.3075556,7.0345 C83.6011407,7.2765 83.9797111,7.3975 84.4432667,7.3975 C84.9564889,7.3975 85.4244593,7.3161 85.8460741,7.1522 L86.0270815,7.953 C85.5337259,8.1664 84.9531778,8.2731 84.2810222,8.2731 C83.4753185,8.2731 82.8406889,8.0366 82.3815481,7.5636 C81.9202,7.0906 81.6917333,6.4559 81.6917333,5.6595 C81.6917333,4.8774 81.9047481,4.2262 82.3340889,3.707 C82.7821926,3.1526 83.3881259,2.8754 84.1529926,2.8754 C84.9013037,2.8754 85.4697111,3.1526 85.8538,3.707 C86.1639407,4.147 86.3173556,4.6915 86.3173556,5.3383 Z M85.2136519,5.0402 C85.2224815,4.6981 85.1463259,4.4033 84.9896,4.1547 C84.7887259,3.8346 84.483,3.674 84.0691111,3.674 C83.6916444,3.674 83.3837111,3.8302 83.1486222,4.1437 C82.9565778,4.3934 82.8428963,4.6915 82.8053704,5.0402 L85.2136519,5.0402 Z" id="Shape"></path>
            </g>
        </g>
    </g>
</svg>